<svg width="82" height="80" viewBox="0 0 82 80" fill="none" xmlns="http://www.w3.org/2000/svg">
<g filter="url(#filter0_d)">
<path d="M32.9492 41.9141H37.0508V37.8125H42.6562V25.5078H39.9219V17.3047H37.0508V13.2031H32.9492V17.3047H27.6172V37.8125H32.9492V41.9141ZM31.7188 21.4062H35.8203V25.5078H31.7188V21.4062ZM31.7188 33.7109V29.6094H38.5547V33.7109H31.7188Z" fill="white"/>
<path d="M60.0879 9.10156C57.9185 9.10156 55.911 9.80385 54.2773 10.9905V5H15.7227V10.9905C14.089 9.80385 12.0815 9.10156 9.91211 9.10156C4.44656 9.10156 0 13.5481 0 19.0137V19.6973C0 25.1628 4.44656 29.6094 9.91211 29.6094H15.7227V33.4375C15.7227 41.6609 20.8993 48.6966 28.1641 51.4614V62.6953H27.3438C22.8961 62.6953 19.2773 66.3141 19.2773 70.7617V75H50.7227V70.7617C50.7227 66.3141 47.1039 62.6953 42.6562 62.6953H41.8359V51.4614C49.1007 48.6971 54.2773 41.6609 54.2773 33.4375V29.6094H60.0879C65.5534 29.6094 70 25.1628 70 19.6973V19.0137C70 13.5481 65.5534 9.10156 60.0879 9.10156ZM15.7227 25.5078H9.91211C6.7083 25.5078 4.10156 22.9011 4.10156 19.6973V19.0137C4.10156 15.8099 6.7083 13.2031 9.91211 13.2031C13.1159 13.2031 15.7227 15.8099 15.7227 19.0137V25.5078ZM42.6562 66.7969C44.8421 66.7969 46.6211 68.5758 46.6211 70.7617V70.8984H23.3789V70.7617C23.3789 68.5758 25.1579 66.7969 27.3438 66.7969H42.6562ZM32.2656 62.6953V52.5199C33.1591 52.6476 34.0718 52.7148 35 52.7148C35.9282 52.7148 36.8409 52.6476 37.7344 52.5199V62.6953H32.2656ZM50.1758 33.4375C50.1758 41.8056 43.3681 48.6133 35 48.6133C26.6319 48.6133 19.8242 41.8056 19.8242 33.4375V9.10156H50.1758V33.4375ZM65.8984 19.6973C65.8984 22.9011 63.2917 25.5078 60.0879 25.5078H54.2773V19.0137C54.2773 15.8099 56.8841 13.2031 60.0879 13.2031C63.2917 13.2031 65.8984 15.8099 65.8984 19.0137V19.6973Z" fill="white"/>
</g>
<defs>
<filter id="filter0_d" x="0" y="0" width="82" height="80" filterUnits="userSpaceOnUse" color-interpolation-filters="sRGB">
<feFlood flood-opacity="0" result="BackgroundImageFix"/>
<feColorMatrix in="SourceAlpha" type="matrix" values="0 0 0 0 0 0 0 0 0 0 0 0 0 0 0 0 0 0 127 0" result="hardAlpha"/>
<feOffset dx="7"/>
<feGaussianBlur stdDeviation="2.5"/>
<feColorMatrix type="matrix" values="0 0 0 0 0 0 0 0 0 0 0 0 0 0 0 0 0 0 0.6 0"/>
<feBlend mode="normal" in2="BackgroundImageFix" result="effect1_dropShadow"/>
<feBlend mode="normal" in="SourceGraphic" in2="effect1_dropShadow" result="shape"/>
</filter>
</defs>
</svg>
