<svg width="82" height="80" viewBox="0 0 82 80" fill="none" xmlns="http://www.w3.org/2000/svg">
<g filter="url(#filter0_d)">
<path d="M65.625 62.486V54.0589H57.6955C59.8958 50.5197 61.2935 46.4319 61.6276 42.0508H67.9492V37.9492H61.6278C61.2935 33.5681 59.8959 29.4803 57.6956 25.9411H65.625V17.514C68.1652 16.656 70 14.2519 70 11.4258C70 7.88258 67.1174 5 63.5742 5C60.031 5 57.1484 7.88258 57.1484 11.4258C57.1484 14.2519 58.9832 16.656 61.5234 17.514V21.8395H54.5609C50.1171 17.0564 43.9466 13.8983 37.0508 13.3722V7.05078H32.9492V13.3722C26.0534 13.8983 19.8829 17.0563 15.4391 21.8395H8.47656V17.514C11.0168 16.656 12.8516 14.2519 12.8516 11.4258C12.8516 7.88258 9.96898 5 6.42578 5C2.88258 5 0 7.88258 0 11.4258C0 14.2519 1.83477 16.656 4.375 17.514V25.9411H12.3046C10.1042 29.4803 8.70652 33.5681 8.37225 37.9492H2.05078V42.0508H8.37225C8.70652 46.4319 10.1041 50.5197 12.3044 54.0589H4.375V62.486C1.83477 63.344 0 65.7481 0 68.5742C0 72.1174 2.88258 75 6.42578 75C9.96898 75 12.8516 72.1174 12.8516 68.5742C12.8516 65.7481 11.0168 63.344 8.47656 62.486V58.1605H15.4391C19.8829 62.9436 26.0534 66.1015 32.9492 66.6278V72.9492H37.0508V66.6278C43.9466 66.1017 50.1171 62.9437 54.5609 58.1605H61.5234V62.486C58.9832 63.344 57.1484 65.7481 57.1484 68.5742C57.1484 72.1174 60.031 75 63.5742 75C67.1174 75 70 72.1174 70 68.5742C70 65.7481 68.1652 63.344 65.625 62.486V62.486ZM63.5742 9.10156C64.8558 9.10156 65.8984 10.1442 65.8984 11.4258C65.8984 12.7074 64.8558 13.75 63.5742 13.75C62.2926 13.75 61.25 12.7074 61.25 11.4258C61.25 10.1442 62.2926 9.10156 63.5742 9.10156ZM6.42578 9.10156C7.70738 9.10156 8.75 10.1442 8.75 11.4258C8.75 12.7074 7.70738 13.75 6.42578 13.75C5.14418 13.75 4.10156 12.7074 4.10156 11.4258C4.10156 10.1442 5.14418 9.10156 6.42578 9.10156ZM6.42578 70.8984C5.14418 70.8984 4.10156 69.8558 4.10156 68.5742C4.10156 67.2926 5.14418 66.25 6.42578 66.25C7.70738 66.25 8.75 67.2926 8.75 68.5742C8.75 69.8558 7.70738 70.8984 6.42578 70.8984ZM35 62.6041C22.536 62.6041 12.3959 52.464 12.3959 40C12.3959 27.536 22.536 17.3959 35 17.3959C47.464 17.3959 57.6041 27.536 57.6041 40C57.6041 52.464 47.464 62.6041 35 62.6041V62.6041ZM63.5742 70.8984C62.2926 70.8984 61.25 69.8558 61.25 68.5742C61.25 67.2926 62.2926 66.25 63.5742 66.25C64.8558 66.25 65.8984 67.2926 65.8984 68.5742C65.8984 69.8558 64.8558 70.8984 63.5742 70.8984Z" fill="white"/>
<path d="M42.7593 38.6197C43.6399 37.4798 44.1657 36.0526 44.1657 34.5043C44.1658 32.7075 43.4628 31.0149 42.1861 29.7383C40.9095 28.4616 39.2169 27.7586 37.4205 27.7587H37.0509V24.5066H32.9493V27.7587H26.2163V31.8603H28.4467V48.1399H26.2163V52.2415H32.9493V55.4936H37.0509V52.2415H38.2876C42.4491 52.2415 45.8346 48.8557 45.8346 44.6941C45.8348 42.6842 45.0481 40.7903 43.6196 39.3619C43.3488 39.0909 43.0611 38.8435 42.7593 38.6197V38.6197ZM32.5483 31.8601H37.4207C38.1216 31.8601 38.784 32.1365 39.2859 32.6383C39.7878 33.1404 40.0643 33.8028 40.0641 34.504C40.0641 35.9538 38.8909 37.1338 37.4443 37.1466H32.5484V31.8601H32.5483ZM38.2876 48.1398H32.5483V41.2494L38.2876 41.2482C39.202 41.2481 40.0655 41.6082 40.7192 42.262C41.3729 42.9158 41.7331 43.7794 41.7329 44.6938C41.7331 46.5939 40.1873 48.1398 38.2876 48.1398V48.1398Z" fill="white"/>
</g>
<defs>
<filter id="filter0_d" x="0" y="0" width="82" height="80" filterUnits="userSpaceOnUse" color-interpolation-filters="sRGB">
<feFlood flood-opacity="0" result="BackgroundImageFix"/>
<feColorMatrix in="SourceAlpha" type="matrix" values="0 0 0 0 0 0 0 0 0 0 0 0 0 0 0 0 0 0 127 0"/>
<feOffset dx="7"/>
<feGaussianBlur stdDeviation="2.5"/>
<feColorMatrix type="matrix" values="0 0 0 0 0 0 0 0 0 0 0 0 0 0 0 0 0 0 0.6 0"/>
<feBlend mode="normal" in2="BackgroundImageFix" result="effect1_dropShadow"/>
<feBlend mode="normal" in="SourceGraphic" in2="effect1_dropShadow" result="shape"/>
</filter>
</defs>
</svg>
