<svg width="82" height="80" viewBox="0 0 82 80" fill="none" xmlns="http://www.w3.org/2000/svg">
<mask id="mask0" mask-type="alpha" maskUnits="userSpaceOnUse" x="0" y="0" width="82" height="80">
<rect width="82" height="80" fill="#C4C4C4"/>
</mask>
<g mask="url(#mask0)">
<g filter="url(#filter0_d)">
<path d="M21.6143 50.7671C21.7711 51.3016 21.4676 51.8582 20.9351 52.015C20.8407 52.0451 20.7442 52.0572 20.6498 52.0572C20.2157 52.0572 19.8138 51.7698 19.6872 51.3398C19.0944 49.3303 18.793 47.2424 18.7889 45.1263C18.7889 44.5737 19.2994 44.1577 19.7937 44.1195C20.3483 44.1195 20.7985 44.5697 20.7985 45.1223C20.8025 47.0454 21.0778 48.9444 21.6143 50.7671ZM20.3483 40.1588C20.4428 40.1869 20.5372 40.1989 20.6297 40.1989C21.0657 40.1989 21.4676 39.9136 21.5942 39.4775C22.1288 37.6428 22.9225 35.8965 23.9554 34.2849C24.2549 33.8167 24.1202 33.1957 23.652 32.8963C23.1818 32.5949 22.5628 32.7295 22.2634 33.1997C21.126 34.9742 20.2519 36.8973 19.6651 38.9169C19.5084 39.4454 19.8138 40.002 20.3483 40.1588ZM23.9956 55.9517C23.6942 55.4875 23.0733 55.3508 22.607 55.6563C22.1408 55.9557 22.0082 56.5786 22.3096 57.0428C23.449 58.8092 24.8356 60.3988 26.4292 61.7753C26.6201 61.9401 26.8532 62.0204 27.0863 62.0204C27.3676 62.0204 27.647 61.8999 27.8459 61.6728C28.2076 61.2528 28.1634 60.6178 27.7434 60.2541C26.2945 59.0041 25.0326 57.5533 23.9956 55.9517ZM49.1208 26.8094C50.8631 27.5992 52.4807 28.6321 53.9316 29.88C54.1245 30.0428 54.3556 30.1232 54.5867 30.1232C54.8701 30.1232 55.1494 30.0046 55.3483 29.7735C55.7121 29.3535 55.6658 28.7185 55.2398 28.3568C53.6463 26.9823 51.8678 25.8449 49.9527 24.9767C49.4463 24.7457 48.8495 24.9727 48.6224 25.4771C48.3974 25.9835 48.6184 26.5804 49.1208 26.8094ZM37.7931 25.25C37.8413 25.25 37.8895 25.248 37.9378 25.24C39.8227 24.9687 41.776 24.9627 43.6428 25.2219C44.1954 25.3043 44.7018 24.9145 44.7762 24.3659C44.8526 23.8193 44.4707 23.3088 43.9181 23.2345C41.8644 22.9491 39.7142 22.9531 37.6444 23.2546C37.0958 23.335 36.714 23.8434 36.7943 24.392C36.8727 24.8903 37.3007 25.25 37.7931 25.25ZM27.02 30.2076C27.2551 30.2076 27.4902 30.1252 27.6811 29.9604C29.126 28.7004 30.7376 27.6575 32.4678 26.8597C32.9722 26.6286 33.1933 26.0297 32.9602 25.5274C32.7291 25.023 32.1302 24.8039 31.6278 25.035C29.7208 25.9152 27.9484 27.0606 26.3588 28.4452C25.9409 28.8109 25.8987 29.4459 26.2624 29.8639C26.4613 30.091 26.7407 30.2076 27.02 30.2076ZM49.1952 63.3186C47.4569 64.1144 45.6182 64.6569 43.7212 64.9302C43.1746 65.0066 42.7908 65.517 42.8692 66.0656C42.9435 66.568 43.3715 66.9257 43.8659 66.9257C43.9081 66.9257 43.9603 66.9257 44.0065 66.9177C46.0864 66.6223 48.112 66.0254 50.0271 65.1473C50.5335 64.9162 50.7525 64.3193 50.5214 63.8129C50.2984 63.3166 49.7056 63.0895 49.1952 63.3186ZM61.9135 44.0351C61.3609 44.0351 60.9087 44.5275 60.9087 45.0821C60.9087 47.0052 60.6334 48.9042 60.1049 50.7309C59.9482 51.2654 60.2496 51.8221 60.7841 51.9788C60.8786 52.011 60.973 52.021 61.0695 52.021C61.5055 52.021 61.9054 51.7337 62.032 51.2996C62.6208 49.2901 62.9182 47.2002 62.9182 45.0861V45.0037C62.9182 44.4431 62.4661 44.0351 61.9135 44.0351ZM38.0181 64.9383C36.1272 64.669 34.2844 64.1345 32.5422 63.3427C32.0378 63.1116 31.443 63.3347 31.2119 63.8411C30.9828 64.3455 31.2058 64.9423 31.7102 65.1674C33.6273 66.0435 35.6529 66.6323 37.7368 66.9257C37.785 66.9337 37.8313 66.9398 37.8775 66.9398C38.3698 66.9398 38.7999 66.572 38.8722 66.0737C38.9506 65.5231 38.5688 65.0146 38.0181 64.9383ZM60.0808 39.359C60.2054 39.795 60.6113 40.0744 61.0433 40.0744C61.1378 40.0744 61.2363 40.0603 61.3327 40.0322C61.8693 39.8714 62.1687 39.3148 62.0079 38.7802C61.4111 36.7647 60.5269 34.8456 59.3754 33.0812C59.076 32.617 58.449 32.4844 57.9848 32.7858C57.5247 33.0872 57.388 33.7102 57.6914 34.1764C58.7304 35.784 59.5322 37.5263 60.0808 39.359ZM59.1182 55.6161C58.656 55.3187 58.027 55.4513 57.7296 55.9155C56.6927 57.5231 55.4368 58.972 53.9939 60.2279C53.5779 60.5957 53.5317 61.2287 53.8914 61.6447C54.0924 61.8737 54.3697 61.9903 54.649 61.9903C54.8841 61.9903 55.1152 61.9079 55.3081 61.7431C56.9017 60.3626 58.2802 58.771 59.4176 57.0047C59.7191 56.5364 59.5844 55.9175 59.1182 55.6161ZM50.1738 47.0595C50.6099 47.805 50.8249 48.639 50.8249 49.5573C50.8249 50.6545 50.4913 51.6673 49.8322 52.5937C49.173 53.5161 48.2386 54.2235 47.0269 54.7058C46.5868 54.8826 46.0683 55.0273 45.4795 55.1398V58.8373H41.9749V55.4312C41.8845 55.4312 41.8061 55.4332 41.7157 55.4332H39.7242V58.8373H36.2176V55.4332H30.8722V52.5716H31.6901C32.2347 52.5716 32.6004 52.5254 32.7934 52.431C32.9863 52.3365 33.1229 52.2059 33.2013 52.0311C33.2837 51.8582 33.3199 51.4724 33.3199 50.8675V39.3288C33.3199 38.7179 33.2817 38.3261 33.2013 38.1573C33.1229 37.9905 32.9883 37.8538 32.7934 37.7574C32.6004 37.6589 32.2327 37.6067 31.6901 37.6067H30.8722V34.7411H36.2176V31.3369H39.7242V34.7411H41.9749V31.3369H45.4795V34.9882C45.994 35.0847 46.4682 35.2093 46.8661 35.3741C47.893 35.792 48.6827 36.3949 49.2394 37.1786C49.79 37.9664 50.0673 38.8284 50.0673 39.7689C50.0673 40.4501 49.9226 41.0992 49.6272 41.7181C49.3338 42.327 48.9138 42.8656 48.3652 43.3398C47.8146 43.8101 47.0851 44.1979 46.1829 44.5054C47.1494 44.7525 47.897 45.0238 48.4054 45.3212C49.1509 45.7332 49.7377 46.3139 50.1738 47.0595ZM38.4422 43.1168H40.7109C41.8985 43.1168 42.7767 43.0203 43.3454 42.8234C43.9141 42.6224 44.3421 42.325 44.6295 41.9271C44.9189 41.5293 45.0575 41.0651 45.0575 40.5406C45.0575 39.996 44.9269 39.5318 44.6556 39.15C44.3823 38.7621 43.9864 38.4888 43.476 38.3261C42.9616 38.1613 42.0432 38.0789 40.7149 38.0789H38.4462L38.4422 43.1168ZM45.4574 49.0007C45.4574 48.3878 45.3127 47.8713 45.0294 47.4473C44.74 47.0253 44.316 46.7018 43.7393 46.4848C43.1666 46.2697 42.2924 46.1592 41.1188 46.1592H38.4422V50.6385C38.4542 51.2695 38.4763 51.6412 38.5165 51.7538C38.5647 51.8864 38.6451 51.9828 38.7617 52.0451C38.8762 52.0954 39.1817 52.1255 39.6861 52.1255H41.1932C42.0734 52.1255 42.7988 52.0451 43.3756 51.8783C43.9523 51.7156 44.4466 51.378 44.8445 50.8595C45.2565 50.3431 45.4574 49.7281 45.4574 49.0007ZM71.2297 44.8892C71.2297 61.496 57.7196 75 41.1148 75C24.5101 75 11 61.4859 11 44.8892C11 29.2972 22.9045 16.4403 38.1005 14.9231V11.0286H37.4876C35.8217 11.0286 34.4733 9.6802 34.4733 8.0143C34.4733 6.3484 35.8217 5 37.4876 5H44.742C46.4059 5 47.7563 6.3484 47.7563 8.0143C47.7563 9.6802 46.4059 11.0286 44.742 11.0286H44.1291V14.9231C49.38 15.4476 54.229 17.3405 58.3405 20.2202L60.977 17.5837L60.541 17.1496C59.3634 15.974 59.3634 14.063 60.541 12.8874C61.7185 11.7098 63.6256 11.7098 64.8032 12.8874L69.9335 18.0177C71.1131 19.1933 71.1131 21.1044 69.9335 22.28C69.3447 22.8687 68.5751 23.1621 67.8014 23.1621C67.0277 23.1621 66.2581 22.8687 65.6693 22.28L65.2332 21.8479L62.9102 24.1729C68.0546 29.5746 71.2297 36.8591 71.2297 44.8892ZM67.2106 44.8892C67.2106 30.4949 55.5051 18.7894 41.1148 18.7894C26.7266 18.7894 15.0191 30.4969 15.0191 44.8892C15.0191 59.2734 26.7266 70.9809 41.1148 70.9809C55.5051 70.9809 67.2106 59.2734 67.2106 44.8892Z" fill="white"/>
</g>
</g>
<defs>
<filter id="filter0_d" x="11" y="0" width="72.2297" height="80" filterUnits="userSpaceOnUse" color-interpolation-filters="sRGB">
<feFlood flood-opacity="0" result="BackgroundImageFix"/>
<feColorMatrix in="SourceAlpha" type="matrix" values="0 0 0 0 0 0 0 0 0 0 0 0 0 0 0 0 0 0 127 0"/>
<feOffset dx="7"/>
<feGaussianBlur stdDeviation="2.5"/>
<feColorMatrix type="matrix" values="0 0 0 0 0 0 0 0 0 0 0 0 0 0 0 0 0 0 0.6 0"/>
<feBlend mode="normal" in2="BackgroundImageFix" result="effect1_dropShadow"/>
<feBlend mode="normal" in="SourceGraphic" in2="effect1_dropShadow" result="shape"/>
</filter>
</defs>
</svg>
