<svg width="78" height="80" viewBox="0 0 78 80" fill="none" xmlns="http://www.w3.org/2000/svg">
<g clip-path="url(#clip0)" filter="url(#filter0_d)">
<path d="M65.1487 24.7579L65.145 24.6532C65.1177 24.0508 65.099 23.4009 65.0878 22.6676C65.0178 17.9631 61.2821 14.0719 56.5829 13.8086C49.5382 13.415 44.102 11.1293 39.4749 6.61435L39.3868 6.5305C36.9643 4.30722 33.3108 4.30722 30.8883 6.5305L30.8002 6.61435C26.1726 11.1293 20.7369 13.4156 13.6927 13.8092C8.993 14.0714 5.25673 17.9626 5.1873 22.6681C5.17662 23.3779 5.15793 24.0279 5.12963 24.6538L5.12535 24.8257C4.97475 32.7229 4.78729 42.5506 8.13424 51.6403C10.0072 56.7272 12.8478 61.1545 16.5782 64.7989C20.7925 68.916 26.2831 72.1743 32.898 74.483C33.1922 74.5855 33.4983 74.6689 33.8102 74.7313C34.2475 74.8189 34.6946 74.8633 35.1373 74.8633C35.5816 74.8633 36.0281 74.8189 36.4671 74.7313C36.7774 74.6689 37.0845 74.585 37.3814 74.4809C43.9882 72.1679 49.473 68.908 53.6835 64.792C57.4118 61.147 60.2524 56.7192 62.1265 51.6317C65.4851 42.5169 65.2988 32.67 65.1487 24.7579ZM58.278 50.2143C56.6155 54.7261 54.1054 58.6439 50.8162 61.86C47.0382 65.553 42.0624 68.4967 36.027 70.61C35.909 70.6517 35.7856 70.6848 35.6612 70.7099C35.3151 70.7793 34.9589 70.7788 34.6144 70.7104C34.4895 70.6848 34.3666 70.6517 34.2491 70.6105C28.2063 68.5016 23.2257 65.5594 19.4445 61.8653C16.1542 58.6508 13.6436 54.7341 11.9832 50.2239C8.90381 41.8595 9.08219 32.4628 9.22585 24.9101L9.22852 24.8177C9.2579 24.1566 9.27766 23.473 9.28834 22.729C9.32626 20.1666 11.361 18.0475 13.9213 17.9043C22.0091 17.452 28.2805 14.7999 33.6563 9.55754L33.6745 9.54045C34.5119 8.78369 35.7643 8.78369 36.6011 9.54099L36.6188 9.55808C41.9951 14.8004 48.266 17.452 56.3538 17.9038C58.9136 18.0469 60.9489 20.1661 60.9868 22.7301C60.9985 23.5055 61.0183 24.195 61.0471 24.8257L61.0482 24.8562C61.1919 32.4206 61.3665 41.8307 58.278 50.2143Z" fill="white"/>
<path d="M35 21C24.5234 21 16 29.5236 16 40C16 50.4769 24.5234 59 35 59C45.4766 59 54 50.4769 54 40C54 29.5236 45.4766 21 35 21ZM35 55.3109C26.5598 55.3109 19.6931 48.4424 19.6931 40C19.6931 31.5576 26.5598 24.6896 35 24.6896C43.4402 24.6896 50.3069 31.5576 50.3069 40C50.3069 48.4424 43.4402 55.3109 35 55.3109Z" fill="white"/>
<path d="M39.2891 31.9747V29.8235C39.2891 28.8163 38.4878 28 37.499 28C36.5107 28 35.7089 28.8163 35.7089 29.8235V31.3616H34.7746V29.8235C34.7746 28.8163 33.9732 28 32.9845 28C31.9957 28 31.1943 28.8163 31.1943 29.8235V31.6907C29.9021 32.281 29 33.6044 29 35.1378V44.8617C29 46.3956 29.9021 47.7186 31.1943 48.3093V50.1765C31.1943 51.1837 31.9957 52 32.9845 52C33.9732 52 34.7746 51.1837 34.7746 50.1765V48.6384H35.7089V50.1765C35.7089 51.1837 36.5107 52 37.499 52C38.4878 52 39.2891 51.1837 39.2891 50.1765V48.0253C40.9012 47.1468 42 45.4145 42 43.4262V43.3887C42 42.0961 41.5357 40.9118 40.7679 40C41.5357 39.0882 42 37.9039 42 36.6108V36.5738C42 34.5855 40.9012 32.8532 39.2891 31.9747ZM32.5803 35.1383C32.5803 35.0666 32.6372 35.0086 32.7076 35.0086H36.8827C37.7302 35.0086 38.4197 35.711 38.4197 36.5743V36.6113C38.4197 37.4746 37.7302 38.177 36.8827 38.177H32.5803V35.1383ZM36.8827 41.8235C37.7302 41.8235 38.4197 42.5258 38.4197 43.3892V43.4262C38.4197 44.2895 37.7302 44.9918 36.8827 44.9918H32.7076C32.6372 44.9918 32.5803 44.9334 32.5803 44.8622V41.8235H36.8827Z" fill="white"/>
</g>
<defs>
<filter id="filter0_d" x="0" y="0" width="82" height="80" filterUnits="userSpaceOnUse" color-interpolation-filters="sRGB">
<feFlood flood-opacity="0" result="BackgroundImageFix"/>
<feColorMatrix in="SourceAlpha" type="matrix" values="0 0 0 0 0 0 0 0 0 0 0 0 0 0 0 0 0 0 127 0" result="hardAlpha"/>
<feOffset dx="7"/>
<feGaussianBlur stdDeviation="2.5"/>
<feColorMatrix type="matrix" values="0 0 0 0 0 0 0 0 0 0 0 0 0 0 0 0 0 0 0.6 0"/>
<feBlend mode="normal" in2="BackgroundImageFix" result="effect1_dropShadow"/>
<feBlend mode="normal" in="SourceGraphic" in2="effect1_dropShadow" result="shape"/>
</filter>
<clipPath id="clip0">
<rect width="70" height="70" fill="white" transform="translate(0 5)"/>
</clipPath>
</defs>
</svg>
