<svg width="78" height="80" viewBox="0 0 78 80" fill="none" xmlns="http://www.w3.org/2000/svg">
<g filter="url(#filter0_d)">
<path d="M15.4996 50.7671C15.6563 51.3016 15.3529 51.8582 14.8204 52.015C14.7259 52.0451 14.6295 52.0572 14.535 52.0572C14.101 52.0572 13.6991 51.7698 13.5725 51.3398C12.9796 49.3303 12.6782 47.2424 12.6742 45.1263C12.6742 44.5737 13.1846 44.1577 13.679 44.1195C14.2336 44.1195 14.6837 44.5697 14.6837 45.1223C14.6877 47.0454 14.963 48.9444 15.4996 50.7671ZM14.2336 40.1588C14.328 40.1869 14.4225 40.1989 14.5149 40.1989C14.951 40.1989 15.3529 39.9136 15.4795 39.4775C16.014 37.6428 16.8078 35.8965 17.8407 34.2849C18.1401 33.8167 18.0055 33.1957 17.5373 32.8963C17.067 32.5949 16.4481 32.7295 16.1487 33.1997C15.0113 34.9742 14.1371 36.8973 13.5504 38.9169C13.3936 39.4454 13.6991 40.002 14.2336 40.1588ZM17.8809 55.9517C17.5795 55.4875 16.9585 55.3508 16.4923 55.6563C16.0261 55.9557 15.8935 56.5786 16.1949 57.0428C17.3343 58.8092 18.7209 60.3988 20.3144 61.7753C20.5053 61.9401 20.7384 62.0204 20.9715 62.0204C21.2529 62.0204 21.5322 61.8999 21.7312 61.6728C22.0929 61.2528 22.0487 60.6178 21.6287 60.2541C20.1798 59.0041 18.9178 57.5533 17.8809 55.9517ZM43.0061 26.8094C44.7483 27.5992 46.366 28.6321 47.8169 29.88C48.0098 30.0428 48.2409 30.1232 48.472 30.1232C48.7553 30.1232 49.0346 30.0046 49.2336 29.7735C49.5973 29.3535 49.5511 28.7185 49.1251 28.3568C47.5315 26.9823 45.7531 25.8449 43.838 24.9767C43.3316 24.7457 42.7348 24.9727 42.5077 25.4771C42.2826 25.9835 42.5037 26.5804 43.0061 26.8094ZM31.6783 25.25C31.7266 25.25 31.7748 25.248 31.823 25.24C33.708 24.9687 35.6612 24.9627 37.5281 25.2219C38.0807 25.3043 38.5871 24.9145 38.6614 24.3659C38.7378 23.8193 38.356 23.3088 37.8034 23.2345C35.7496 22.9491 33.5994 22.9531 31.5296 23.2546C30.981 23.335 30.5992 23.8434 30.6796 24.392C30.758 24.8903 31.186 25.25 31.6783 25.25ZM20.9052 30.2076C21.1403 30.2076 21.3755 30.1252 21.5664 29.9604C23.0112 28.7004 24.6229 27.6575 26.3531 26.8597C26.8575 26.6286 27.0785 26.0297 26.8454 25.5274C26.6143 25.023 26.0155 24.8039 25.5131 25.035C23.606 25.9152 21.8336 27.0606 20.2441 28.4452C19.8261 28.8109 19.7839 29.4459 20.1476 29.8639C20.3466 30.091 20.6259 30.2076 20.9052 30.2076ZM43.0804 63.3186C41.3422 64.1144 39.5034 64.6569 37.6064 64.9302C37.0599 65.0066 36.676 65.517 36.7544 66.0656C36.8288 66.568 37.2568 66.9257 37.7511 66.9257C37.7933 66.9257 37.8456 66.9257 37.8918 66.9177C39.9717 66.6223 41.9973 66.0254 43.9123 65.1473C44.4188 64.9162 44.6378 64.3193 44.4067 63.8129C44.1836 63.3166 43.5908 63.0895 43.0804 63.3186ZM55.7987 44.0351C55.2461 44.0351 54.794 44.5275 54.794 45.0821C54.794 47.0052 54.5187 48.9042 53.9902 50.7309C53.8334 51.2654 54.1348 51.8221 54.6694 51.9788C54.7638 52.011 54.8583 52.021 54.9547 52.021C55.3908 52.021 55.7907 51.7337 55.9173 51.2996C56.5061 49.2901 56.8035 47.2001 56.8035 45.0861V45.0037C56.8035 44.4431 56.3513 44.0351 55.7987 44.0351ZM31.9034 64.9383C30.0124 64.669 28.1697 64.1345 26.4274 63.3427C25.923 63.1116 25.3282 63.3347 25.0971 63.8411C24.868 64.3455 25.0911 64.9423 25.5955 65.1674C27.5126 66.0435 29.5382 66.6323 31.6221 66.9257C31.6703 66.9337 31.7165 66.9398 31.7627 66.9398C32.2551 66.9398 32.6851 66.572 32.7574 66.0737C32.8358 65.5231 32.454 65.0146 31.9034 64.9383ZM53.966 39.359C54.0906 39.795 54.4966 40.0744 54.9286 40.0744C55.023 40.0744 55.1215 40.0603 55.218 40.0322C55.7545 39.8714 56.0539 39.3148 55.8932 38.7802C55.2963 36.7647 54.4122 34.8456 53.2607 33.0812C52.9613 32.617 52.3343 32.4844 51.8701 32.7858C51.4099 33.0872 51.2733 33.7102 51.5767 34.1764C52.6156 35.784 53.4174 37.5263 53.966 39.359ZM53.0035 55.6161C52.5413 55.3187 51.9123 55.4513 51.6149 55.9155C50.578 57.5231 49.322 58.972 47.8792 60.2279C47.4632 60.5957 47.417 61.2287 47.7767 61.6447C47.9776 61.8737 48.2549 61.9903 48.5343 61.9903C48.7694 61.9903 49.0005 61.9079 49.1934 61.7431C50.787 60.3626 52.1655 58.771 53.3029 57.0047C53.6043 56.5364 53.4697 55.9175 53.0035 55.6161ZM44.059 47.0595C44.4951 47.805 44.7101 48.639 44.7101 49.5573C44.7101 50.6545 44.3766 51.6673 43.7174 52.5937C43.0583 53.5161 42.1239 54.2235 40.9121 54.7057C40.472 54.8826 39.9536 55.0273 39.3648 55.1398V58.8373H35.8602V55.4312C35.7697 55.4312 35.6914 55.4332 35.6009 55.4332H33.6095V58.8373H30.1029V55.4332H24.7575V52.5716H25.5754C26.12 52.5716 26.4857 52.5254 26.6786 52.431C26.8715 52.3365 27.0082 52.2059 27.0865 52.0311C27.1689 51.8582 27.2051 51.4724 27.2051 50.8675V39.3288C27.2051 38.7179 27.1669 38.3261 27.0865 38.1573C27.0082 37.9905 26.8735 37.8538 26.6786 37.7574C26.4857 37.6589 26.118 37.6067 25.5754 37.6067H24.7575V34.7411H30.1029V31.3369H33.6095V34.7411H35.8602V31.3369H39.3648V34.9882C39.8792 35.0847 40.3535 35.2093 40.7514 35.3741C41.7782 35.792 42.568 36.3949 43.1246 37.1786C43.6752 37.9664 43.9525 38.8284 43.9525 39.7689C43.9525 40.4501 43.8079 41.0992 43.5125 41.7182C43.2191 42.327 42.7991 42.8656 42.2505 43.3398C41.6999 43.8101 40.9704 44.1979 40.0681 44.5054C41.0347 44.7525 41.7822 45.0238 42.2907 45.3212C43.0362 45.7332 43.623 46.3139 44.059 47.0595ZM32.3274 43.1168H34.5962C35.7838 43.1168 36.662 43.0203 37.2307 42.8234C37.7994 42.6224 38.2274 42.325 38.5148 41.9271C38.8041 41.5293 38.9428 41.0651 38.9428 40.5406C38.9428 39.996 38.8122 39.5318 38.5409 39.15C38.2676 38.7621 37.8717 38.4888 37.3613 38.3261C36.8468 38.1613 35.9285 38.0789 34.6002 38.0789H32.3314L32.3274 43.1168ZM39.3427 49.0007C39.3427 48.3878 39.198 47.8713 38.9146 47.4473C38.6253 47.0253 38.2013 46.7018 37.6245 46.4848C37.0518 46.2697 36.1777 46.1592 35.0041 46.1592H32.3274V50.6385C32.3395 51.2695 32.3616 51.6412 32.4018 51.7537C32.45 51.8864 32.5304 51.9828 32.6469 52.0451C32.7615 52.0954 33.0669 52.1255 33.5713 52.1255H35.0785C35.9586 52.1255 36.6841 52.0451 37.2608 51.8783C37.8375 51.7156 38.3319 51.378 38.7298 50.8595C39.1417 50.3431 39.3427 49.7281 39.3427 49.0007ZM65.1149 44.8892C65.1149 61.496 51.6048 75 35.0001 75C18.3953 75 4.88525 61.4859 4.88525 44.8892C4.88525 29.2972 16.7897 16.4403 31.9858 14.9231V11.0286H31.3729C29.707 11.0286 28.3586 9.6802 28.3586 8.0143C28.3586 6.3484 29.707 5 31.3729 5H38.6273C40.2912 5 41.6416 6.3484 41.6416 8.0143C41.6416 9.6802 40.2912 11.0286 38.6273 11.0286H38.0144V14.9231C43.2653 15.4476 48.1143 17.3405 52.2258 20.2202L54.8623 17.5837L54.4262 17.1496C53.2486 15.974 53.2486 14.063 54.4262 12.8874C55.6038 11.7098 57.5108 11.7098 58.6884 12.8874L63.8188 18.0177C64.9984 19.1933 64.9984 21.1044 63.8188 22.28C63.23 22.8687 62.4603 23.1621 61.6867 23.1621C60.913 23.1621 60.1433 22.8687 59.5545 22.28L59.1185 21.8479L56.7955 24.1729C61.9399 29.5746 65.1149 36.8591 65.1149 44.8892ZM61.0958 44.8892C61.0958 30.4949 49.3903 18.7894 35.0001 18.7894C20.6118 18.7894 8.90432 30.4969 8.90432 44.8892C8.90432 59.2734 20.6118 70.9809 35.0001 70.9809C49.3903 70.9809 61.0958 59.2734 61.0958 44.8892Z" fill="white"/>
</g>
<defs>
<filter id="filter0_d" x="0" y="0" width="81.998" height="80" filterUnits="userSpaceOnUse" color-interpolation-filters="sRGB">
<feFlood flood-opacity="0" result="BackgroundImageFix"/>
<feColorMatrix in="SourceAlpha" type="matrix" values="0 0 0 0 0 0 0 0 0 0 0 0 0 0 0 0 0 0 127 0" result="hardAlpha"/>
<feOffset dx="7"/>
<feGaussianBlur stdDeviation="2.5"/>
<feColorMatrix type="matrix" values="0 0 0 0 0 0 0 0 0 0 0 0 0 0 0 0 0 0 0.6 0"/>
<feBlend mode="normal" in2="BackgroundImageFix" result="effect1_dropShadow"/>
<feBlend mode="normal" in="SourceGraphic" in2="effect1_dropShadow" result="shape"/>
</filter>
</defs>
</svg>
