<svg width="82" height="80" viewBox="0 0 82 80" fill="none" xmlns="http://www.w3.org/2000/svg">
<mask id="mask0" mask-type="alpha" maskUnits="userSpaceOnUse" x="0" y="0" width="82" height="80">
<rect width="82" height="80" fill="#C4C4C4"/>
</mask>
<g mask="url(#mask0)">
<g filter="url(#filter0_d)">
<path d="M71.0901 24.8949L71.0864 24.7902C71.0591 24.1878 71.0404 23.5378 71.0292 22.8046C70.9593 18.1 67.2235 14.2089 62.5243 13.9456C55.4796 13.552 50.0434 11.2662 45.4163 6.75131L45.3282 6.66746C42.9057 4.44418 39.2522 4.44418 36.8297 6.66746L36.7416 6.75131C32.114 11.2662 26.6783 13.5525 19.6341 13.9461C14.9344 14.2084 11.1981 18.0995 11.1287 22.8051C11.118 23.5149 11.0993 24.1648 11.071 24.7907L11.0668 24.9627C10.9162 32.8598 10.7287 42.6876 14.0756 51.7772C15.9486 56.8641 18.7892 61.2915 22.5196 64.9359C26.7339 69.0529 32.2245 72.3112 38.8394 74.62C39.1337 74.7225 39.4397 74.8058 39.7516 74.8683C40.189 74.9559 40.636 75.0002 41.0787 75.0002C41.523 75.0002 41.9695 74.9559 42.4085 74.8683C42.7188 74.8058 43.0259 74.722 43.3228 74.6178C49.9296 72.3048 55.4144 69.0449 59.6249 64.9289C63.3532 61.284 66.1939 56.8561 68.0679 51.7687C71.4266 42.6539 71.2402 32.8069 71.0901 24.8949V24.8949ZM64.2194 50.3513C62.5569 54.863 60.0468 58.7809 56.7576 61.997C52.9796 65.69 48.0038 68.6337 41.9684 70.747C41.8504 70.7886 41.727 70.8217 41.6026 70.8468C41.2565 70.9163 40.9003 70.9157 40.5559 70.8474C40.4309 70.8217 40.308 70.7886 40.1906 70.7475C34.1477 68.6385 29.1671 65.6964 25.3859 62.0023C22.0956 58.7878 19.585 54.871 17.9246 50.3609C14.8452 41.9965 15.0236 32.5997 15.1673 25.0471L15.1699 24.9547C15.1993 24.2935 15.2191 23.6099 15.2297 22.866C15.2677 20.3036 17.3024 18.1844 19.8627 18.0413C27.9505 17.589 34.2219 14.9368 39.5978 9.69451L39.6159 9.67742C40.4533 8.92066 41.7057 8.92066 42.5425 9.67795L42.5602 9.69504C47.9365 14.9374 54.2074 17.589 62.2952 18.0408C64.855 18.1839 66.8903 20.303 66.9282 22.8671C66.9399 23.6425 66.9597 24.332 66.9885 24.9627L66.9896 24.9931C67.1333 32.5575 67.3079 41.9676 64.2194 50.3513V50.3513Z" fill="white"/>
<path d="M40.9414 21.137C30.4648 21.137 21.9414 29.6605 21.9414 40.137C21.9414 50.6139 30.4648 59.137 40.9414 59.137C51.418 59.137 59.9414 50.6139 59.9414 40.137C59.9414 29.6605 51.418 21.137 40.9414 21.137ZM40.9414 55.4478C32.5012 55.4478 25.6345 48.5793 25.6345 40.137C25.6345 31.6946 32.5012 24.8266 40.9414 24.8266C49.3816 24.8266 56.2484 31.6946 56.2484 40.137C56.2484 48.5793 49.3816 55.4478 40.9414 55.4478Z" fill="white"/>
<path d="M45.2305 32.1116V29.9605C45.2305 28.9533 44.4292 28.137 43.4404 28.137C42.4521 28.137 41.6503 28.9533 41.6503 29.9605V31.4986H40.716V29.9605C40.716 28.9533 39.9147 28.137 38.9259 28.137C37.9371 28.137 37.1357 28.9533 37.1357 29.9605V31.8277C35.8435 32.4179 34.9414 33.7414 34.9414 35.2748V44.9987C34.9414 46.5325 35.8435 47.8555 37.1357 48.4463V50.3135C37.1357 51.3207 37.9371 52.137 38.9259 52.137C39.9147 52.137 40.716 51.3207 40.716 50.3135V48.7753H41.6503V50.3135C41.6503 51.3207 42.4521 52.137 43.4404 52.137C44.4292 52.137 45.2305 51.3207 45.2305 50.3135V48.1623C46.8426 47.2838 47.9414 45.5514 47.9414 43.5632V43.5256C47.9414 42.233 47.4771 41.0487 46.7093 40.137C47.4771 39.2252 47.9414 38.0409 47.9414 36.7478V36.7108C47.9414 34.7225 46.8426 32.9901 45.2305 32.1116V32.1116ZM38.5217 35.2752C38.5217 35.2035 38.5786 35.1456 38.649 35.1456H42.8241C43.6716 35.1456 44.3611 35.8479 44.3611 36.7112V36.7483C44.3611 37.6116 43.6716 38.3139 42.8241 38.3139H38.5217V35.2752ZM42.8241 41.9605C43.6716 41.9605 44.3611 42.6628 44.3611 43.5261V43.5632C44.3611 44.4265 43.6716 45.1288 42.8241 45.1288H38.649C38.5786 45.1288 38.5217 45.0704 38.5217 44.9992V41.9605H42.8241Z" fill="white"/>
</g>
</g>
<defs>
<filter id="filter0_d" x="11" y="0" width="72.1563" height="80.0002" filterUnits="userSpaceOnUse" color-interpolation-filters="sRGB">
<feFlood flood-opacity="0" result="BackgroundImageFix"/>
<feColorMatrix in="SourceAlpha" type="matrix" values="0 0 0 0 0 0 0 0 0 0 0 0 0 0 0 0 0 0 127 0"/>
<feOffset dx="7"/>
<feGaussianBlur stdDeviation="2.5"/>
<feColorMatrix type="matrix" values="0 0 0 0 0 0 0 0 0 0 0 0 0 0 0 0 0 0 0.6 0"/>
<feBlend mode="normal" in2="BackgroundImageFix" result="effect1_dropShadow"/>
<feBlend mode="normal" in="SourceGraphic" in2="effect1_dropShadow" result="shape"/>
</filter>
</defs>
</svg>
