<svg width="82" height="80" viewBox="0 0 82 80" fill="none" xmlns="http://www.w3.org/2000/svg">
<g filter="url(#filter0_d)">
<path d="M70 39.8633C70 20.4313 53.9682 5 34.8633 5C26.4477 5 18.4104 8.00221 12.0771 13.4789C11.5008 13.2998 10.8884 13.2031 10.2539 13.2031C6.8615 13.2031 4.10156 15.9631 4.10156 19.3555C4.10156 20.3811 4.35518 21.3483 4.80102 22.1995C1.65648 27.5408 0 33.6182 0 39.8633C0 58.9902 15.4533 75 34.8633 75C43.3158 75 51.6389 71.9233 57.9208 66.5204C58.4977 66.7001 59.1108 66.7969 59.7461 66.7969C63.1385 66.7969 65.8984 64.0369 65.8984 60.6445C65.8984 59.6179 65.6444 58.6501 65.1978 57.7983C68.3017 52.4916 70 46.1779 70 39.8633ZM10.2539 17.3047C11.3847 17.3047 12.3047 18.2247 12.3047 19.3555C12.3047 20.4863 11.3847 21.4062 10.2539 21.4062C9.12311 21.4062 8.20312 20.4863 8.20312 19.3555C8.20312 18.2247 9.12311 17.3047 10.2539 17.3047ZM59.7461 62.6953C58.6153 62.6953 57.6953 61.7753 57.6953 60.6445C57.6953 59.5137 58.6153 58.5938 59.7461 58.5938C60.8769 58.5938 61.7969 59.5137 61.7969 60.6445C61.7969 61.7753 60.8769 62.6953 59.7461 62.6953ZM62.0925 54.9581C61.3689 54.6586 60.5767 54.4922 59.7461 54.4922C56.3537 54.4922 53.5938 57.2521 53.5938 60.6445C53.5938 61.8702 53.9555 63.0122 54.5755 63.9724C49.1159 68.3946 42.0457 70.9258 34.8633 70.9258C17.9013 70.9258 4.07422 57.0034 4.07422 39.8906C4.07422 34.674 5.41078 29.5638 7.90289 25.04C8.62764 25.3409 9.42156 25.5078 10.2539 25.5078C13.6463 25.5078 16.4062 22.7479 16.4062 19.3555C16.4062 18.1281 16.0435 16.9846 15.4219 16.0236C20.9022 11.5462 27.7288 9.07422 34.8633 9.07422C51.9761 9.07422 65.9258 22.9013 65.9258 39.8633C65.9258 45.1554 64.5568 50.4383 62.0925 54.9581Z" fill="white"/>
<path d="M34.8633 17.3047C22.4245 17.3047 12.3047 27.4245 12.3047 39.8633C12.3047 52.3029 22.3605 62.6953 34.8633 62.6953C47.3167 62.6953 57.6953 52.358 57.6953 39.8633C57.6953 27.3379 47.2813 17.3047 34.8633 17.3047ZM34.8633 58.6211C24.6861 58.6211 16.3789 50.2186 16.3789 39.8906C16.3789 29.7134 24.6861 21.3789 34.8633 21.3789C45.1913 21.3789 53.6211 29.6861 53.6211 39.8633C53.6211 50.0163 45.0163 58.6211 34.8633 58.6211Z" fill="white"/>
<path d="M45.3906 35.7617C45.3906 32.3693 42.6307 29.6094 39.2383 29.6094H37.1875V27.5586C37.1875 26.426 36.2693 25.5078 35.1367 25.5078C34.0041 25.5078 33.0859 26.426 33.0859 27.5586V29.6094H26.9336C25.801 29.6094 24.8828 30.5276 24.8828 31.6602C24.8828 32.7927 25.801 33.7109 26.9336 33.7109H28.9844V46.0156H26.9336C25.801 46.0156 24.8828 46.9338 24.8828 48.0664C24.8828 49.199 25.801 50.1172 26.9336 50.1172H33.0859V52.168C33.0859 53.3005 34.0041 54.2188 35.1367 54.2188C36.2693 54.2188 37.1875 53.3005 37.1875 52.168V50.1172H39.2383C42.6307 50.1172 45.3906 47.3572 45.3906 43.9648C45.3906 42.3903 44.7954 40.9527 43.819 39.8633C44.7955 38.7739 45.3906 37.3363 45.3906 35.7617ZM39.2383 46.0156H33.0859V41.9141H39.2383C40.3691 41.9141 41.2891 42.834 41.2891 43.9648C41.2891 45.0956 40.3691 46.0156 39.2383 46.0156ZM39.2383 37.8125H33.0859V33.7109H39.2383C40.3691 33.7109 41.2891 34.6309 41.2891 35.7617C41.2891 36.8925 40.3691 37.8125 39.2383 37.8125Z" fill="white"/>
</g>
<defs>
<filter id="filter0_d" x="0" y="0" width="82" height="80" filterUnits="userSpaceOnUse" color-interpolation-filters="sRGB">
<feFlood flood-opacity="0" result="BackgroundImageFix"/>
<feColorMatrix in="SourceAlpha" type="matrix" values="0 0 0 0 0 0 0 0 0 0 0 0 0 0 0 0 0 0 127 0"/>
<feOffset dx="7"/>
<feGaussianBlur stdDeviation="2.5"/>
<feColorMatrix type="matrix" values="0 0 0 0 0 0 0 0 0 0 0 0 0 0 0 0 0 0 0.6 0"/>
<feBlend mode="normal" in2="BackgroundImageFix" result="effect1_dropShadow"/>
<feBlend mode="normal" in="SourceGraphic" in2="effect1_dropShadow" result="shape"/>
</filter>
</defs>
</svg>
