<svg width="50" height="50" viewBox="0 0 50 50" fill="none" xmlns="http://www.w3.org/2000/svg">
<path fill-rule="evenodd" clip-rule="evenodd" d="M25 0C11.1929 0 0 11.1929 0 25C0 38.8071 11.1929 50 25 50C38.8071 50 50 38.8071 50 25C50 11.1929 38.8071 0 25 0ZM43.0933 26.8594C43.1255 26.7788 43.1904 26.7305 43.271 26.7144C43.271 26.3423 43.271 25.9707 43.2871 25.583C43.1108 25.5356 43.0972 25.3945 43.084 25.2588C43.0791 25.208 43.0742 25.1582 43.061 25.1143C42.4795 23.3853 40.7339 22.6577 39.5381 22.9004C37.5825 23.2881 36.6938 24.7749 36.8071 26.3262C36.8184 26.5308 36.8696 26.7354 36.8428 26.9731C36.8315 27.0737 36.8062 27.1807 36.7583 27.2959C33.2031 29.1865 29.5991 31.1099 25.9795 33.0327C25.2197 32.0146 24.25 31.5137 23.0381 31.5947C21.8262 31.6753 21.002 32.4351 20.3716 33.356C20.1943 33.3657 20.0596 33.3159 19.9409 33.2534C19.8647 33.2134 19.7949 33.168 19.7251 33.1299C16.8003 31.5947 13.9238 29.9946 10.9663 28.5566C9.41504 27.7969 8.57471 25.6475 8.81689 24.1606C9.07568 22.5933 9.65723 22.2861 11.063 23.0132C14.6348 24.8882 18.2222 26.7627 21.8101 28.6372C22.4888 28.9927 23.1191 29.0088 23.7817 28.6533C23.9067 28.5815 24.0371 28.52 24.1694 28.457C24.2764 28.4067 24.3843 28.3555 24.4927 28.2979C27.5146 26.7305 30.5205 25.1465 33.5425 23.5791C35.4248 22.6025 37.3071 21.6089 39.1963 20.6357C39.9019 20.272 40.6084 19.9111 41.3159 19.5552C42.0107 19.2158 41.9458 18.5371 41.3159 18.23C41.1704 18.1489 41.0249 18.0845 40.8794 18.02L39.1406 17.2109C35.6934 15.6074 32.2432 14.0029 28.8398 12.3149C27.9673 11.895 27.1431 11.895 26.2866 12.3149C26.0601 12.4282 25.8501 12.5415 25.6401 12.6543C20.0806 15.418 14.5215 18.1816 8.94629 20.9448C8.12207 21.3652 7.58887 22.0439 7.24951 22.9004C6.84521 23.9346 6.8291 24.9849 7.104 26.0518C7.58887 27.9263 8.54199 29.397 10.3521 30.2695C13.0835 31.5947 15.75 33.0166 18.4326 34.4067C18.9658 34.6812 19.5151 34.9561 20.0322 35.2144C20.6143 37.2183 21.729 38.1074 23.4746 38.0264C24.9614 37.9619 26.335 36.7983 26.5288 34.8105L30.2173 32.8193C32.7905 31.4307 35.3638 30.042 37.9219 28.6533C39.8613 30.0269 42.5278 29.2026 43.0933 26.8594ZM39.9258 27.2314C39.2632 27.2153 38.8755 26.7949 38.8916 26.084C38.9077 25.4536 39.3926 24.9688 39.9907 24.9688C40.6045 24.9526 41.1543 25.5508 41.1216 26.1807C41.0894 26.7627 40.5562 27.2476 39.9258 27.2314ZM23.2808 33.6953C23.8784 33.6953 24.3955 34.229 24.3955 34.8267C24.3955 35.4731 23.9595 35.9258 23.313 35.9741C22.6987 35.9902 22.1172 35.4248 22.1333 34.8105C22.1494 34.2124 22.6826 33.6792 23.2808 33.6953Z" fill="white"/>
</svg>
