<svg width="51" height="51" viewBox="0 0 51 51" fill="none" xmlns="http://www.w3.org/2000/svg">
<path d="M25.7469 0.520508C11.9438 0.520508 0.75 11.9969 0.75 26.1541C0.75 37.4773 7.9125 47.0836 17.85 50.4761C19.1 50.7122 19.5563 49.9207 19.5563 49.241C19.5563 48.6314 19.5344 47.0197 19.5219 44.8815C12.5688 46.4293 11.1 41.4443 11.1 41.4443C9.96563 38.4826 8.325 37.6944 8.325 37.6944C6.05313 36.105 8.49375 36.1369 8.49375 36.1369C11.0031 36.3188 12.3219 38.7794 12.3219 38.7794C14.5531 42.6953 18.175 41.5656 19.6 40.9081C19.825 39.2518 20.4719 38.122 21.1875 37.4805C15.6375 36.8327 9.8 34.6338 9.8 24.8137C9.8 22.0148 10.775 19.7266 12.375 17.933C12.1156 17.2851 11.2594 14.6777 12.6188 11.1512C12.6188 11.1512 14.7188 10.4618 19.4938 13.7777C21.4875 13.2097 23.625 12.9256 25.7531 12.916C27.875 12.9288 30.0156 13.2097 32.0125 13.7809C36.7844 10.465 38.8812 11.1544 38.8812 11.1544C40.2437 14.6841 39.3875 17.2883 39.1312 17.9362C40.7344 19.7298 41.7 22.018 41.7 24.8169C41.7 34.6625 35.8562 36.8295 30.2875 37.4646C31.1844 38.256 31.9844 39.8198 31.9844 42.2102C31.9844 45.6378 31.9531 48.4016 31.9531 49.241C31.9531 49.9271 32.4031 50.725 33.6719 50.4729C43.5937 47.0772 50.75 37.4741 50.75 26.1541C50.75 11.9969 39.5563 0.520508 25.7469 0.520508Z" fill="white"/>
</svg>
