<svg width="51" height="50" viewBox="0 0 51 50" fill="none" xmlns="http://www.w3.org/2000/svg">
<path fill-rule="evenodd" clip-rule="evenodd" d="M25.5 0C11.6929 0 0.5 11.1929 0.5 25C0.5 38.8071 11.6929 50 25.5 50C39.3071 50 50.5 38.8071 50.5 25C50.5 11.1929 39.3071 0 25.5 0ZM38.5 15.1431L36.4253 17.1274C36.2476 17.2607 36.1567 17.4863 36.1948 17.7061V32.2954C36.1567 32.5142 36.249 32.7393 36.4263 32.874L38.4521 34.8574V35.292H28.2559V34.8564L30.3579 32.8228C30.5615 32.6191 30.5615 32.5552 30.5615 32.2446V20.4565L24.7188 35.2539H23.9292L17.1343 20.4565V30.3735C17.0747 30.793 17.2148 31.21 17.5103 31.5112L20.2402 34.814V35.2485H12.5V34.8193L15.23 31.5112C15.3901 31.3457 15.5029 31.1421 15.5596 30.9238C15.6055 30.7461 15.6138 30.5586 15.5801 30.3735V18.9087C15.6113 18.5913 15.4878 18.2759 15.2515 18.0605L12.8281 15.1431V14.7085H20.3638L26.1914 27.457L31.313 14.7085H38.5V15.1431Z" fill="white"/>
</svg>
