<svg width="50" height="50" viewBox="0 0 50 50" fill="none" xmlns="http://www.w3.org/2000/svg">
<path d="M30.2351 33.5299C29.1151 34.6499 26.7153 35.0497 25.0052 35.0497C23.2901 35.0497 20.8952 34.6499 19.7752 33.5299C19.5101 33.2648 19.0852 33.2648 18.8204 33.5299C18.5553 33.795 18.5553 34.22 18.8204 34.4847C20.5954 36.2597 24.0054 36.3997 25.0052 36.3997C26.005 36.3997 29.41 36.2597 31.1903 34.4847C31.4501 34.2196 31.4501 33.7946 31.1903 33.5299C30.9252 33.2648 30.5003 33.2648 30.2351 33.5299V33.5299Z" fill="white"/>
<path d="M21.8752 27.6051C21.8752 26.17 20.7052 25 19.2701 25C17.8354 25 16.665 26.17 16.665 27.6051C16.665 29.0398 17.8354 30.2101 19.2701 30.2101C20.7052 30.2101 21.8752 29.0401 21.8752 27.6051V27.6051Z" fill="white"/>
<path d="M25 0C11.195 0 0 11.195 0 25C0 38.805 11.195 50 25 50C38.805 50 50 38.805 50 25C50 11.195 38.805 0 25 0ZM39.505 28.3348C39.5599 28.6949 39.5901 29.06 39.5901 29.43C39.5901 35.0399 33.0601 39.5851 25.005 39.5851C16.9498 39.5851 10.4198 35.0399 10.4198 29.43C10.4198 29.055 10.45 28.685 10.5049 28.3249C9.235 27.755 8.34999 26.4801 8.34999 25C8.34999 22.99 9.98001 21.3551 11.9949 21.3551C12.9749 21.3551 13.8599 21.74 14.5149 22.3701C17.0448 20.5452 20.5452 19.3798 24.44 19.2799C24.44 19.2299 26.26 10.5598 26.26 10.5598C26.2951 10.3901 26.395 10.2448 26.54 10.1501C26.685 10.0552 26.86 10.025 27.0302 10.0601L33.0902 11.3499C33.5152 10.49 34.3899 9.89494 35.4149 9.89494C36.8549 9.89494 38.0199 11.06 38.0199 12.5C38.0199 13.94 36.8549 15.1051 35.4149 15.1051C34.0199 15.1051 32.8899 14.0049 32.8251 12.6251L27.3998 11.47L25.7401 19.2852C29.565 19.4199 33.0002 20.5799 35.49 22.3801C36.145 21.7453 37.035 21.3551 38.0199 21.3551C40.0352 21.3551 41.6649 22.9851 41.6649 25C41.6649 26.49 40.77 27.7649 39.505 28.3348V28.3348Z" fill="white"/>
<path d="M30.7301 25C29.295 25 28.125 26.17 28.125 27.6051C28.125 29.0398 29.295 30.2101 30.7301 30.2101C32.1648 30.2101 33.3351 29.0398 33.3351 27.6051C33.3351 26.17 32.1651 25 30.7301 25V25Z" fill="white"/>
</svg>
