<svg width="50" height="50" viewBox="0 0 50 50" fill="none" xmlns="http://www.w3.org/2000/svg">
<path fill-rule="evenodd" clip-rule="evenodd" d="M25 50C38.8071 50 50 38.8071 50 25C50 11.1929 38.8071 0 25 0C11.1929 0 0 11.1929 0 25C0 38.8071 11.1929 50 25 50ZM36.4761 19.2817C37.5127 19.1587 38.5244 18.8813 39.4785 18.4595C39.168 18.9272 38.8203 19.3682 38.4399 19.7783C37.9653 20.291 37.4399 20.7563 36.8711 21.167C36.8813 21.3892 36.8877 21.6167 36.8877 21.8418C36.8877 28.7505 31.6289 36.7168 22.0127 36.7168C19.1714 36.7192 16.3896 35.9038 14 34.3667C15.3691 34.5322 16.7568 34.4258 18.085 34.0547C19.4126 33.6831 20.6543 33.0537 21.7388 32.2017C20.6475 32.1816 19.5903 31.8208 18.7144 31.1694C17.8389 30.5186 17.1885 29.6094 16.855 28.5708C17.6392 28.7202 18.4468 28.6895 19.2173 28.4805C18.0342 28.2412 16.9702 27.6001 16.2061 26.6655C15.4419 25.7314 15.0239 24.5615 15.0239 23.3545V23.2896C15.7495 23.6929 16.561 23.917 17.3911 23.9429C15.9888 23.0054 15.0664 21.4043 15.0664 19.5918C15.0649 18.6685 15.3091 17.7612 15.7739 16.9629C17.0864 18.5781 18.7241 19.8989 20.5806 20.8403C22.4365 21.7812 24.4702 22.3213 26.5488 22.4258C26.2847 21.3042 26.3984 20.1265 26.8726 19.0767C27.3467 18.0264 28.1543 17.1621 29.1704 16.6187C30.186 16.0747 31.353 15.8818 32.4897 16.0698C33.6265 16.2578 34.6694 16.8164 35.4561 17.6582C36.6274 17.4268 37.7515 16.9995 38.7764 16.3892C38.3857 17.6006 37.5684 18.6284 36.4761 19.2817Z" fill="white"/>
</svg>
